<?xml version="1.0" encoding="UTF-8"?>
<svg id="Layer_1" data-name="Layer 1" xmlns="http://www.w3.org/2000/svg" viewBox="0 0 352.43 253.32">
  <defs>
    <style>
      .cls-1 {
        fill: #3dd67c;
      }
    </style>
  </defs>
  <g>
    <path class="cls-1" d="M158.45,196.26h-26.33v-53.81l13.3,.13c11.4,.1,33.24-2.1,51.14-18.22,15.72-14.16,35.13-46.47,20.29-72.89-9.88-17.58-32.88-27.88-54.69-24.49-27.19,4.22-40.23,28.12-41.63,30.83l-23.41-12.06c3.3-6.41,21.77-38.7,60.99-44.79,32.8-5.09,66.38,10.38,81.68,37.62,9.94,17.7,11.38,38.45,4.14,60.02-5.66,16.86-16.5,33.39-29.76,45.33-18.58,16.74-39.87,22.54-55.73,24.31v28.02Z"/>
    <circle class="cls-1" cx="146.07" cy="235.26" r="18.06"/>
  </g>
  <g>
    <path d="M35.51,105.88c-.57,4.88-2.37,8.64-5.4,11.29-3.03,2.65-7.06,3.98-12.08,3.98-5.45,0-9.81-1.95-13.1-5.86-3.28-3.91-4.93-9.13-4.93-15.68v-4.43c0-4.29,.76-8.06,2.3-11.31,1.53-3.25,3.7-5.75,6.51-7.49s6.06-2.61,9.76-2.61c4.9,0,8.83,1.37,11.78,4.1,2.96,2.73,4.68,6.52,5.16,11.36h-6.11c-.53-3.69-1.67-6.35-3.44-8.01-1.76-1.65-4.23-2.48-7.4-2.48-3.89,0-6.93,1.44-9.14,4.31-2.21,2.87-3.31,6.96-3.31,12.27v4.47c0,5.01,1.05,8.99,3.14,11.95,2.09,2.96,5.02,4.44,8.77,4.44,3.38,0,5.97-.77,7.78-2.3,1.81-1.53,3-4.2,3.6-8h6.11Z"/>
    <path d="M64.05,120.51c-.34-.68-.61-1.88-.82-3.61-2.72,2.83-5.98,4.24-9.76,4.24-3.38,0-6.15-.96-8.32-2.87-2.17-1.91-3.25-4.33-3.25-7.27,0-3.57,1.36-6.34,4.07-8.31,2.71-1.97,6.53-2.96,11.45-2.96h5.7v-2.69c0-2.05-.61-3.68-1.84-4.89-1.23-1.21-3.03-1.82-5.42-1.82-2.09,0-3.84,.53-5.26,1.58-1.42,1.06-2.12,2.33-2.12,3.83h-5.89c0-1.71,.61-3.36,1.82-4.96,1.21-1.59,2.86-2.86,4.94-3.79s4.37-1.39,6.86-1.39c3.95,0,7.04,.99,9.28,2.96,2.24,1.97,3.4,4.69,3.48,8.16v15.77c0,3.15,.4,5.65,1.2,7.51v.51h-6.14Zm-9.72-4.47c1.84,0,3.58-.48,5.23-1.43,1.65-.95,2.84-2.19,3.58-3.71v-7.03h-4.59c-7.18,0-10.77,2.1-10.77,6.3,0,1.84,.61,3.27,1.84,4.31,1.22,1.04,2.8,1.55,4.72,1.55Z"/>
    <path d="M83.72,86.24l.19,4.31c2.62-3.29,6.04-4.94,10.26-4.94,7.24,0,10.9,4.09,10.96,12.26v22.65h-5.86v-22.68c-.02-2.47-.59-4.3-1.7-5.48-1.11-1.18-2.83-1.77-5.18-1.77-1.9,0-3.57,.51-5,1.52-1.44,1.01-2.56,2.34-3.36,3.99v24.42h-5.86v-34.27h5.54Z"/>
    <path d="M111.85,87.38l-3.33-2.28c1.96-2.74,2.98-5.64,3.04-8.68v-4.56h5.8v4.12c-.02,2.11-.54,4.22-1.57,6.32-1.02,2.1-2.34,3.8-3.94,5.08Z"/>
    <path d="M132.34,77.94v8.3h6.4v4.53h-6.4v21.28c0,1.37,.29,2.41,.85,3.09,.57,.69,1.54,1.03,2.92,1.03,.67,0,1.6-.13,2.79-.38v4.72c-1.54,.42-3.04,.63-4.5,.63-2.62,0-4.59-.79-5.92-2.38-1.33-1.58-2-3.83-2-6.75v-21.25h-6.24v-4.53h6.24v-8.3h5.86Z"/>
    <path d="M162.56,120.51v-46.12h13.02c4.01,0,7.56,.89,10.64,2.66,3.08,1.77,5.46,4.3,7.14,7.57,1.68,3.27,2.53,7.03,2.55,11.28v2.95c0,4.35-.84,8.16-2.52,11.44-1.68,3.27-4.08,5.79-7.19,7.54-3.12,1.75-6.74,2.65-10.88,2.69h-12.77Zm6.08-41.15v36.17h6.4c4.69,0,8.34-1.46,10.94-4.38,2.61-2.92,3.91-7.07,3.91-12.46v-2.69c0-5.24-1.23-9.32-3.69-12.22-2.46-2.91-5.95-4.38-10.47-4.42h-7.09Z"/>
    <path d="M218.41,121.14c-4.65,0-8.43-1.53-11.34-4.58-2.91-3.05-4.37-7.13-4.37-12.24v-1.08c0-3.4,.65-6.44,1.95-9.11,1.3-2.67,3.12-4.76,5.45-6.27,2.33-1.51,4.86-2.27,7.59-2.27,4.46,0,7.92,1.47,10.39,4.4s3.71,7.14,3.71,12.61v2.44h-23.22c.08,3.38,1.07,6.11,2.96,8.19s4.29,3.12,7.21,3.12c2.07,0,3.82-.42,5.26-1.27,1.44-.84,2.69-1.96,3.77-3.36l3.58,2.79c-2.87,4.41-7.18,6.62-12.92,6.62Zm-.73-30.73c-2.37,0-4.35,.86-5.96,2.58-1.61,1.72-2.6,4.13-2.98,7.24h17.17v-.44c-.17-2.98-.97-5.28-2.41-6.92-1.44-1.64-3.38-2.45-5.83-2.45Z"/>
    <path d="M252.3,116.36c2.09,0,3.92-.63,5.48-1.9,1.56-1.27,2.43-2.85,2.6-4.75h5.54c-.11,1.96-.78,3.83-2.03,5.61s-2.91,3.19-4.99,4.24-4.28,1.58-6.6,1.58c-4.67,0-8.38-1.56-11.13-4.67-2.76-3.11-4.13-7.38-4.13-12.78v-.98c0-3.34,.61-6.3,1.84-8.9,1.22-2.6,2.98-4.61,5.27-6.05s5-2.15,8.12-2.15c3.84,0,7.04,1.15,9.58,3.45,2.54,2.3,3.9,5.29,4.07,8.96h-5.54c-.17-2.22-1.01-4.04-2.52-5.46-1.51-1.43-3.37-2.14-5.59-2.14-2.98,0-5.29,1.07-6.92,3.21-1.64,2.14-2.46,5.24-2.46,9.3v1.11c0,3.95,.81,6.99,2.44,9.12s3.95,3.2,6.97,3.2Z"/>
    <path d="M272.54,77.15c0-.95,.29-1.75,.87-2.41,.58-.65,1.44-.98,2.58-.98s2.01,.33,2.6,.98c.59,.65,.89,1.46,.89,2.41s-.3,1.74-.89,2.38c-.59,.63-1.46,.95-2.6,.95s-2-.32-2.58-.95c-.58-.63-.87-1.43-.87-2.38Zm6.33,43.36h-5.86v-34.27h5.86v34.27Z"/>
    <path d="M286.83,103.09c0-5.26,1.25-9.49,3.74-12.69,2.49-3.2,5.75-4.8,9.79-4.8s7.19,1.37,9.53,4.12v-17.87h5.86v48.65h-5.38l-.29-3.67c-2.34,2.87-5.61,4.31-9.79,4.31s-7.21-1.63-9.71-4.88c-2.5-3.25-3.75-7.5-3.75-12.73v-.44Zm5.86,.67c0,3.89,.8,6.93,2.41,9.12s3.82,3.29,6.65,3.29c3.72,0,6.43-1.67,8.14-5v-15.74c-1.75-3.23-4.45-4.85-8.08-4.85-2.87,0-5.11,1.11-6.72,3.33s-2.41,5.5-2.41,9.85Z"/>
    <path d="M339.06,121.14c-4.65,0-8.43-1.53-11.34-4.58-2.91-3.05-4.37-7.13-4.37-12.24v-1.08c0-3.4,.65-6.44,1.95-9.11,1.3-2.67,3.12-4.76,5.45-6.27,2.33-1.51,4.86-2.27,7.59-2.27,4.46,0,7.92,1.47,10.39,4.4s3.71,7.14,3.71,12.61v2.44h-23.22c.08,3.38,1.07,6.11,2.96,8.19s4.29,3.12,7.21,3.12c2.07,0,3.82-.42,5.26-1.27,1.44-.84,2.69-1.96,3.77-3.36l3.58,2.79c-2.87,4.41-7.18,6.62-12.92,6.62Zm-.73-30.73c-2.37,0-4.35,.86-5.96,2.58-1.61,1.72-2.6,4.13-2.98,7.24h17.17v-.44c-.17-2.98-.97-5.28-2.41-6.92-1.44-1.64-3.38-2.45-5.83-2.45Z"/>
  </g>
</svg>