<?xml version="1.0" encoding="UTF-8"?>
<svg id="Layer_1" data-name="Layer 1" xmlns="http://www.w3.org/2000/svg" viewBox="0 0 151.83 272.38">
  <defs>
    <style>
      .cls-1 {
        fill: #3dd67c;
      }
    </style>
  </defs>
  <path class="cls-1" d="M61.45,205.87h-26.33v-53.81l13.3,.13c11.4,.1,33.24-2.1,51.14-18.22,15.72-14.16,35.13-46.47,20.29-72.89-9.88-17.58-32.88-27.88-54.69-24.49-27.19,4.22-40.23,28.12-41.63,30.83L.12,55.36C3.43,48.95,21.89,16.66,61.12,10.58c32.8-5.09,66.38,10.38,81.68,37.62,9.94,17.7,11.38,38.45,4.14,60.02-5.66,16.86-16.5,33.39-29.76,45.33-18.58,16.74-39.87,22.54-55.73,24.31v28.02Z"/>
  <circle class="cls-1" cx="49.07" cy="244.88" r="18.06"/>
</svg>